<?xml version="1.0" encoding="UTF-8"?>
<!DOCTYPE svg PUBLIC "-//W3C//DTD SVG 1.1//EN" "http://www.w3.org/Graphics/SVG/1.1/DTD/svg11.dtd">
<!-- Creator: CorelDRAW -->
<svg xmlns="http://www.w3.org/2000/svg" xml:space="preserve" width="142.698mm" height="32.9856mm" version="1.1" style="shape-rendering:geometricPrecision; text-rendering:geometricPrecision; image-rendering:optimizeQuality; fill-rule:evenodd; clip-rule:evenodd"
viewBox="0 0 41621.58 9621.11"
 xmlns:xlink="http://www.w3.org/1999/xlink"
 xmlns:xodm="http://www.corel.com/coreldraw/odm/2003">
 <defs>
  <style type="text/css">
   <![CDATA[
    .str0 {stroke:#FEFEFE;stroke-width:58.34;stroke-miterlimit:22.9256;stroke-opacity:0.019608}
    .fil0 {fill:none}
    .fil1 {fill:#FEFEFE;fill-opacity:0.168627}
    .fil2 {fill:white;fill-opacity:0.168627}
   ]]>
  </style>
 </defs>
 <g id="Capa_x0020_1">
  <metadata id="CorelCorpID_0Corel-Layer"/>
  <g id="_1932218830208">
   <polygon class="fil0 str0" points="29.17,29.17 41592.41,29.17 41592.41,9591.95 29.17,9591.95 "/>
   <g>
    <path class="fil1" d="M40031.97 29.17l446.96 0 -11221.86 6681.95c-70.18,-227.89 -176.26,-442.18 -334.96,-627.98 -207.94,-243.46 -433.96,-428.91 -684.07,-553.66l11793.93 -5500.31zm-17532.86 9562.78l-2971.95 0 2962.9 -1381.82c-5.37,460.73 -13.48,921.87 9.04,1381.82zm18097.92 -9562.78l191.46 0 -11393.28 8392.89c-4.4,-214.29 -9.39,-428.18 -8.98,-640.32 0.35,-175.41 -5.4,-355.79 -24.21,-534.93l11235.02 -7217.64zm268.37 0l64.4 0 -11550.67 9541.87c14.93,-188.13 20.94,-377.84 22.25,-568.16l11464.01 -8973.71z"/>
    <path class="fil2" d="M25657.76 1896.27c-901.86,144.76 -1676.96,1062.61 -1457.74,2126.93 482.55,2342.66 3948.07,1634.32 3548.97,-659.92 -150.65,-866.07 -1002.29,-1641.76 -2091.23,-1467.01z"/>
    <path class="fil1" d="M22818.44 9581.8l6238.4 10.15c47.89,-545.41 8.84,-1249.83 9.95,-1810.84 1.2,-601.76 -77.32,-1127.24 -387.58,-1490.49 -979.1,-1146.35 -2026.97,-377.55 -2753.45,-392.48 -764.92,-15.72 -1727.89,-748.47 -2738.49,407.44 -314.98,360.25 -375.07,851.96 -374.51,1428.66 0.58,601.52 -23.8,1252.43 5.69,1847.56z"/>
   </g>
  </g>
 </g>
</svg>
